<?xml version="1.0" encoding="iso-8859-1"?>
<!-- Generator: Adobe Illustrator 18.0.0, SVG Export Plug-In . SVG Version: 6.00 Build 0)  -->
<!DOCTYPE svg PUBLIC "-//W3C//DTD SVG 1.1//EN" "http://www.w3.org/Graphics/SVG/1.1/DTD/svg11.dtd">
<svg version="1.1" xmlns="http://www.w3.org/2000/svg" xmlns:xlink="http://www.w3.org/1999/xlink" x="0px" y="0px"
	 viewBox="0 0 60.779 60.857" style="enable-background:new 0 0 60.779 60.857;" xml:space="preserve">
<g id="arrows">
	<g>
		<circle style="fill:#DFE6E8;" cx="11.389" cy="32.219" r="3"/>
		<circle style="fill:#DFE6E8;" cx="47.389" cy="32.219" r="3"/>
		<g>
			<polygon style="fill:#E8E1D4;" points="58.027,3.581 47.421,7.117 54.492,14.188 			"/>
			<polygon style="fill:#937B6A;" points="15.601,46.008 6.408,48.129 0.752,53.786 5.701,55.907 7.823,60.857 13.479,55.2 			"/>
			<line style="fill:none;stroke:#383C3D;stroke-width:2;stroke-miterlimit:10;" x1="51.547" y1="9.062" x2="16.191" y2="44.417"/>
			<polygon style="fill:none;stroke:#383C3D;stroke-width:2;stroke-miterlimit:10;" points="59.027,1.581 48.421,5.117 
				55.492,12.188 			"/>
			<polygon style="fill:none;stroke:#383C3D;stroke-width:2;stroke-miterlimit:10;" points="16.601,44.008 7.408,46.129 
				1.752,51.786 6.701,53.907 8.823,58.857 14.479,53.2 			"/>
			<line style="fill:none;stroke:#383C3D;stroke-miterlimit:10;" x1="16.601" y1="44.008" x2="6.701" y2="53.907"/>
		</g>
		<g>
			<polygon style="fill:#E8E1D4;" points="0.752,3.581 11.358,7.117 4.287,14.188 			"/>
			<polygon style="fill:#937B6A;" points="43.178,46.008 52.37,48.129 58.027,53.786 53.077,55.907 50.956,60.857 45.299,55.2 			
				"/>
			<line style="fill:none;stroke:#383C3D;stroke-width:2;stroke-miterlimit:10;" x1="9.232" y1="9.062" x2="44.587" y2="44.417"/>
			<polygon style="fill:none;stroke:#383C3D;stroke-width:2;stroke-miterlimit:10;" points="1.752,1.581 12.358,5.117 5.287,12.188 
							"/>
			<polygon style="fill:none;stroke:#383C3D;stroke-width:2;stroke-miterlimit:10;" points="44.178,44.008 53.37,46.129 
				59.027,51.786 54.077,53.907 51.956,58.857 46.299,53.2 			"/>
			<line style="fill:none;stroke:#383C3D;stroke-miterlimit:10;" x1="44.178" y1="44.008" x2="54.077" y2="53.907"/>
		</g>
		<circle style="fill:none;stroke:#383C3D;stroke-width:2;stroke-miterlimit:10;" cx="12.389" cy="30.219" r="3"/>
		<circle style="fill:none;stroke:#383C3D;stroke-width:2;stroke-miterlimit:10;" cx="48.389" cy="30.219" r="3"/>
	</g>
</g>
<g id="Layer_1">
</g>
</svg>
