<?xml version="1.0" encoding="iso-8859-1"?>
<!-- Generator: Adobe Illustrator 18.0.0, SVG Export Plug-In . SVG Version: 6.00 Build 0)  -->
<!DOCTYPE svg PUBLIC "-//W3C//DTD SVG 1.1//EN" "http://www.w3.org/Graphics/SVG/1.1/DTD/svg11.dtd">
<svg version="1.1" xmlns="http://www.w3.org/2000/svg" xmlns:xlink="http://www.w3.org/1999/xlink" x="0px" y="0px"
	 viewBox="0 0 60.408 24.324" style="enable-background:new 0 0 60.408 24.324;" xml:space="preserve">
<g id="glasses">
	<g>
		<path style="fill:#8D9091;" d="M58.311,6.933c-0.303-1.672-1.167-2.033-1.655-2.101c-0.835-0.113-1.669-0.345-2.553-0.591
			c-0.92-0.256-1.872-0.521-2.87-0.657c-0.404-0.055-0.806-0.116-1.207-0.177C48.705,3.207,47.338,3,45.824,3
			c-0.001,0-0.002,0-0.003,0c-2.961,0.02-5.854,0.592-8.652,1.146c-1.661,0.329-3.379,0.669-5.061,0.88
			c-0.987,0.123-1.968,0.191-2.893,0.201c-0.947-0.01-1.927-0.078-2.914-0.201c-1.682-0.211-3.4-0.551-5.061-0.88
			C18.441,3.592,15.548,3.02,12.492,3c-1.42,0-2.788,0.207-4.111,0.407C7.979,3.468,7.578,3.529,7.173,3.584
			c-0.998,0.137-1.949,0.401-2.87,0.657C3.42,4.487,2.586,4.719,1.75,4.832C1.263,4.899,0.399,5.261,0.096,6.933
			c-0.02,0.109-0.47,2.683,0.762,3.345c0.827,0.444,1.118,1.483,1.425,2.582l0.092,0.326c0.143,0.498,0.27,1.004,0.398,1.512
			c0.424,1.685,0.862,3.426,1.866,4.975c1.888,2.913,5.516,4.652,9.706,4.652c2.469,0,4.926-0.608,6.917-1.714
			c2.847-1.579,4.878-4.621,6.211-9.3c0.249-0.875,0.746-1.577,0.962-1.651l0.148-0.003c0.207-0.007,0.414-0.011,0.621-0.011
			c0.207,0,0.414,0.004,0.619,0.011l0.147-0.003c0.219,0.08,0.716,0.782,0.965,1.657c1.333,4.679,3.365,7.721,6.211,9.3
			c1.991,1.105,4.447,1.714,6.917,1.714c0,0,0,0,0,0c4.189,0,7.817-1.739,9.705-4.652c1.003-1.549,1.442-3.29,1.866-4.975
			c0.128-0.508,0.255-1.014,0.398-1.513l0.092-0.325c0.308-1.099,0.599-2.138,1.425-2.582C58.781,9.615,58.331,7.042,58.311,6.933z
			 M23.409,16.431c-2.378,4.863-7.304,6.081-12.268,4.915c-2.288-0.537-3.853-2.116-4.591-4.277
			c-0.779-2.281-1.368-4.705-1.235-7.103C5.494,6.755,9.169,6.304,11.8,6.011c1.207-0.134,2.437-0.238,3.661-0.245
			c1.224-0.008,2.443,0.081,3.633,0.33C26.184,7.577,26.327,10.464,23.409,16.431z M51.935,17.069
			c-0.738,2.162-2.303,3.74-4.591,4.277c-4.964,1.166-9.89-0.053-12.268-4.915c-2.918-5.967-2.775-8.854,4.314-10.336
			c1.19-0.249,2.409-0.337,3.633-0.33c1.224,0.008,2.454,0.111,3.661,0.245c2.632,0.293,6.307,0.744,6.485,3.955
			C53.303,12.364,52.714,14.788,51.935,17.069z"/>
		<path style="fill:none;stroke:#383C3D;stroke-width:2;stroke-linejoin:bevel;stroke-miterlimit:10;" d="M45.063,22.324
			c-2.469,0-4.926-0.608-6.917-1.714c-2.847-1.579-4.878-4.621-6.211-9.3c-0.249-0.875-0.746-1.577-0.965-1.657l-0.147,0.003
			c-0.206-0.007-0.413-0.011-0.619-0.011c-0.207,0-0.414,0.004-0.621,0.011l-0.148,0.003c-0.217,0.074-0.713,0.776-0.962,1.651
			c-1.333,4.679-3.365,7.721-6.211,9.3c-1.991,1.105-4.447,1.714-6.917,1.714c-4.189,0-7.817-1.739-9.706-4.652
			c-1.003-1.549-1.442-3.29-1.866-4.975c-0.128-0.508-0.255-1.014-0.398-1.512l-0.092-0.326C2.976,9.761,2.685,8.722,1.858,8.277
			C0.626,7.615,1.077,5.042,1.096,4.933C1.399,3.261,2.263,2.899,2.75,2.832c0.836-0.113,1.67-0.345,2.553-0.591
			c0.92-0.256,1.872-0.521,2.87-0.657c0.404-0.055,0.806-0.116,1.208-0.177C10.704,1.207,12.072,1,13.492,1
			c3.056,0.02,5.949,0.592,8.748,1.146c1.661,0.329,3.379,0.669,5.061,0.88c0.987,0.123,1.967,0.191,2.914,0.201
			c0.925-0.01,1.906-0.078,2.893-0.201c1.682-0.211,3.4-0.551,5.061-0.88C40.967,1.592,43.86,1.02,46.821,1c0.001,0,0.002,0,0.003,0
			c1.514,0,2.881,0.207,4.203,0.407c0.401,0.061,0.803,0.122,1.207,0.177c0.998,0.137,1.95,0.401,2.87,0.657
			c0.883,0.246,1.717,0.478,2.553,0.591c0.488,0.067,1.352,0.429,1.655,2.101c0.02,0.109,0.47,2.683-0.762,3.345
			c-0.827,0.444-1.118,1.483-1.425,2.582l-0.092,0.325c-0.144,0.499-0.271,1.005-0.398,1.513c-0.424,1.685-0.862,3.426-1.866,4.975
			C52.88,20.585,49.252,22.324,45.063,22.324C45.063,22.324,45.063,22.324,45.063,22.324z"/>
		<path style="fill:#FFFFFF;" d="M5.38,5.667c0,0-0.476,0.411-1.063,0.411c-0.587,0-1.063-0.411-1.063-0.411S3.73,5.256,4.317,5.256
			C4.904,5.256,5.38,5.667,5.38,5.667z"/>
		<path style="fill:#FFFFFF;" d="M57.255,5.667c0,0-0.476,0.411-1.063,0.411c-0.587,0-1.063-0.411-1.063-0.411
			s0.476-0.411,1.063-0.411C56.779,5.256,57.255,5.667,57.255,5.667z"/>
		<path style="fill:none;stroke:#383C3D;stroke-miterlimit:10;" d="M44.023,3.766c1.224,0.008,2.454,0.111,3.661,0.245
			c2.632,0.293,6.307,0.744,6.485,3.955c0.133,2.398-0.456,4.822-1.235,7.103c-0.738,2.162-2.303,3.74-4.591,4.277
			c-4.964,1.166-9.89-0.053-12.268-4.915c-2.918-5.967-2.775-8.854,4.314-10.336C41.58,3.847,42.799,3.758,44.023,3.766z"/>
		<path style="fill:none;stroke:#383C3D;stroke-miterlimit:10;" d="M16.462,3.766c-1.224,0.008-2.454,0.111-3.661,0.245
			c-2.632,0.293-6.307,0.744-6.485,3.955c-0.133,2.398,0.456,4.822,1.235,7.103c0.738,2.162,2.303,3.74,4.591,4.277
			c4.964,1.166,9.89-0.053,12.268-4.915c2.918-5.967,2.775-8.854-4.314-10.336C18.905,3.847,17.686,3.758,16.462,3.766z"/>
	</g>
</g>
<g id="Layer_1">
</g>
</svg>
