<?xml version="1.0" encoding="iso-8859-1"?>
<!-- Generator: Adobe Illustrator 18.0.0, SVG Export Plug-In . SVG Version: 6.00 Build 0)  -->
<!DOCTYPE svg PUBLIC "-//W3C//DTD SVG 1.1//EN" "http://www.w3.org/Graphics/SVG/1.1/DTD/svg11.dtd">
<svg version="1.1" xmlns="http://www.w3.org/2000/svg" xmlns:xlink="http://www.w3.org/1999/xlink" x="0px" y="0px"
	 viewBox="0 0 43.847 62.084" style="enable-background:new 0 0 43.847 62.084;" xml:space="preserve">
<g id="moleskine">
	<g>
		<path style="fill:#8D9091;" d="M36.847,61.084H1c-0.552,0-1-0.448-1-1V5c0-0.552,0.448-1,1-1h35.847c2.761,0,5,2.239,5,5v47.084
			C41.847,58.845,39.609,61.084,36.847,61.084z"/>
		<rect y="23.315" style="fill:#C9B8D8;" width="41.847" height="18.453"/>
		<path style="fill:none;stroke:#383C3D;stroke-width:2;stroke-linecap:round;stroke-linejoin:round;stroke-miterlimit:10;" d="
			M37.847,59.084H2c-0.552,0-1-0.448-1-1V3c0-0.552,0.448-1,1-1h35.847c2.761,0,5,2.239,5,5v47.084
			C42.847,56.845,40.609,59.084,37.847,59.084z"/>
		
			<rect x="1" y="21.315" style="fill:none;stroke:#383C3D;stroke-width:2;stroke-linecap:round;stroke-linejoin:round;stroke-miterlimit:10;" width="41.847" height="18.453"/>
		<g>
			<rect x="28.05" y="3" style="fill:#8D9091;" width="2.878" height="59.084"/>
			
				<rect x="29.05" y="1" style="fill:none;stroke:#383C3D;stroke-width:2;stroke-linecap:round;stroke-linejoin:round;stroke-miterlimit:10;" width="2.878" height="59.084"/>
		</g>
	</g>
</g>
<g id="Layer_1">
</g>
</svg>
