<?xml version="1.0" encoding="iso-8859-1"?>
<!-- Generator: Adobe Illustrator 18.0.0, SVG Export Plug-In . SVG Version: 6.00 Build 0)  -->
<!DOCTYPE svg PUBLIC "-//W3C//DTD SVG 1.1//EN" "http://www.w3.org/Graphics/SVG/1.1/DTD/svg11.dtd">
<svg version="1.1" xmlns="http://www.w3.org/2000/svg" xmlns:xlink="http://www.w3.org/1999/xlink" x="0px" y="0px"
	 viewBox="0 0 60.75 54.75" style="enable-background:new 0 0 60.75 54.75;" xml:space="preserve">
<g id="polaroid-camera">
	<g>
		<path style="fill:#E8E1D4;" d="M57.75,30.875V5c0-1.1-0.9-2-2-2H3C1.9,3,1,3.9,1,5v25.875L0,39.25v13.5c0,1.1,0.9,2,2,2h54.75
			c1.1,0,2-0.9,2-2v-13.5L57.75,30.875z"/>
		<path style="fill:#937B6A;" d="M0,41.875V52.75c0,1.1,0.9,2,2,2h54.75c1.1,0,2-0.9,2-2V41.875H0z"/>
		<g>
			<line style="fill:none;stroke:#CC5D41;stroke-width:2;stroke-miterlimit:10;" x1="28.375" y1="39.875" x2="28.375" y2="28.865"/>
			<line style="fill:none;stroke:#FAD24C;stroke-width:2;stroke-miterlimit:10;" x1="30.375" y1="39.875" x2="30.375" y2="29"/>
			<line style="fill:none;stroke:#77B0A1;stroke-width:2;stroke-miterlimit:10;" x1="32.375" y1="39.875" x2="32.375" y2="28.817"/>
		</g>
		<path style="fill:none;stroke:#383C3D;stroke-width:2;stroke-miterlimit:10;" d="M57.75,52.75H3c-1.1,0-2-0.9-2-2v-13.5l1-8.375V3
			c0-1.1,0.9-2,2-2h52.75c1.1,0,2,0.9,2,2v25.875l1,8.376v13.5C59.75,51.85,58.85,52.75,57.75,52.75z"/>
		<path style="fill:none;stroke:#383C3D;stroke-width:2;stroke-miterlimit:10;" d="M1,39.875V50.75c0,1.1,0.9,2,2,2h54.75
			c1.1,0,2-0.9,2-2V39.875H1z"/>
		<rect x="4.75" y="45.208" style="fill:#383C3D;" width="51" height="3.5"/>
		<circle style="fill:#8D9091;" cx="29.375" cy="19" r="12"/>
		<circle style="fill:#FFFFFF;stroke:#383C3D;stroke-miterlimit:10;" cx="30.375" cy="17" r="3.5"/>
		<rect x="44.75" y="6" style="fill:#8D9091;" width="10" height="10"/>
		<circle style="fill:none;stroke:#383C3D;stroke-width:2;stroke-miterlimit:10;" cx="30.375" cy="17" r="12"/>
		<circle style="fill:#CC3E3E;" cx="10.757" cy="26.132" r="3.118"/>
		<circle style="fill:none;stroke:#383C3D;stroke-miterlimit:10;" cx="11.757" cy="24.132" r="3.118"/>
		<circle style="fill:#8D9091;" cx="47.757" cy="28.132" r="3.118"/>
		<circle style="fill:none;stroke:#383C3D;stroke-miterlimit:10;" cx="48.757" cy="26.132" r="3.118"/>
		<rect x="45.75" y="4" style="fill:none;stroke:#383C3D;stroke-width:2;stroke-miterlimit:10;" width="10" height="10"/>
	</g>
</g>
<g id="Layer_1">
</g>
</svg>
